# xmcd CD database file
#
# Track frame offsets:
#	150
#	18580
#	46380
#	71720
#	91035
#	109992
#	130262
#	154360
#	171432
#	200320
#
# Disc length: 3318 seconds
#
# Revision: 3
# Processed by: cddbd v1.5.2PL0 Copyright (c) Steve Scherf et al.
# Submitted via: CDex 1.81
#
DISCID=8a0cf40a
DTITLE=Tropical Jazz Big Band - Tropical Jazz Big Band 05 - La Noche Tropical -
DYEAR=2001
DGENRE=Jazz
TTITLE0=Cra De Payaso
TTITLE1=Nica's Dream
TTITLE2=Don't Stop'til You Get Enough
TTITLE3=Alma Eterna
TTITLE4=I Could Have Danced All Night
TTITLE5=11PM
TTITLE6=El Morro
TTITLE7=007 - The James Bond Theme
TTITLE8=Para Tio Tito: Ran Kan Kan, Oye Como Va, Dance Mania
TTITLE9=Eleven [Live Version]
EXTD=YEAR: 2001
EXTT0=
EXTT1=
EXTT2=
EXTT3=
EXTT4=
EXTT5=
EXTT6=
EXTT7=
EXTT8=
EXTT9=
PLAYORDER=
